<?xml version="1.0" encoding="UTF-8"?>
<svg id="Calque_1" data-name="Calque 1" xmlns="http://www.w3.org/2000/svg" viewBox="0 0 239.38 239.38">
  <defs>
    <style>
      .cls-1 {
        fill: #f4f4f4;
      }
    </style>
  </defs>
  <path class="cls-1" d="m165.63,0c4.63,3.21,4.82,5.79.74,9.88-3.78,3.79-7.56,7.57-11.45,11.47,16.16,11.82,24.19,27.75,24.88,47.78H60.1c-.06-9.53,2.18-18.43,6.48-26.85,4.32-8.45,10.44-15.36,18.33-20.88-3.95-3.95-7.73-7.73-11.51-11.52C69.32,5.79,69.52,3.21,74.14,0,74.92,0,75.7,0,76.48,0c1.35,1.02,2.81,1.92,4.02,3.08,3.09,2.95,6.07,6.01,9.09,9.02q3.37,3.36,7.68,1.55c1-.42,2.02-.79,3.06-1.1,15.26-4.56,30.28-4.18,44.96,2.33,1.21.54,1.91.28,2.79-.62,3.69-3.78,7.41-7.51,11.21-11.18C160.49,1.91,161.95,1.02,163.3,0c.78,0,1.56,0,2.33,0Zm-70.61,51.83c4.11-.04,7.35-3.35,7.33-7.47-.03-4.09-3.35-7.43-7.41-7.45-4.14-.01-7.55,3.48-7.46,7.64.09,4.11,3.41,7.32,7.54,7.27Zm49.89,0c4.11-.02,7.38-3.32,7.38-7.43,0-4.08-3.31-7.45-7.37-7.49-4.14-.04-7.56,3.42-7.49,7.6.06,4.12,3.35,7.34,7.48,7.32Z"/>
  <path class="cls-1" d="m60.15,79.4h119.58c0,.86,0,1.67,0,2.48,0,31.96,0,63.92,0,95.88,0,7.92-3.42,11.27-11.42,11.29-2.71,0-5.42,0-8.37,0-.05,1.07-.14,1.96-.14,2.86,0,10.26.03,20.53-.02,30.79-.04,8.13-4.81,14.35-12.03,15.89-9.39,1.99-17.82-5.42-17.89-15.83-.07-10.19-.01-20.37-.02-30.56,0-.93,0-1.86,0-2.97h-19.92c0,.9,0,1.8,0,2.7,0,10.26.04,20.53-.01,30.79-.04,8.39-5.12,14.68-12.77,15.99-7.94,1.35-16.46-4.92-16.88-12.96-.43-8.38-.23-16.78-.29-25.18-.03-3.73,0-7.45,0-11.53-3.09,0-6.02,0-8.94,0-7.39-.03-10.97-3.49-10.98-10.78-.02-32.27-.01-64.54,0-96.81,0-.61.06-1.22.1-2.05Z"/>
  <path class="cls-1" d="m49.97,129.37c0,11.35.06,22.7-.02,34.05-.05,8.22-5.49,14.44-13.28,15.45-7.48.96-15.07-4.72-16.25-12.19-.21-1.3-.35-2.63-.35-3.94-.02-22.39-.03-44.78,0-67.18,0-7.37,3.95-13.18,10.31-15.34,9.05-3.07,19.12,3.44,19.44,13,.36,10.64.13,21.3.16,31.95,0,1.4,0,2.8,0,4.2Z"/>
  <path class="cls-1" d="m189.8,129.24c0-11.35-.03-22.7.01-34.06.03-7.03,3.87-12.71,9.91-14.89,10.03-3.6,19.95,3.88,19.97,15.16.05,18.04.03,36.08,0,54.12-.01,5.51.16,11.06-.35,16.53-.68,7.26-7.68,13.12-14.77,12.97-7.66-.16-14.49-6.47-14.65-14.16-.24-11.89-.06-23.79-.06-35.68h-.07Z"/>
</svg>