<?xml version="1.0" encoding="UTF-8"?>
<svg id="Calque_1" data-name="Calque 1" xmlns="http://www.w3.org/2000/svg" viewBox="0 0 341.01 384">
  <defs>
    <style>
      .cls-1 {
        fill: #f4f4f4;
      }
    </style>
  </defs>
  <path class="cls-1" d="m174.73,384h-9c-5.13-2.16-10.56-3.81-15.36-6.56-43.98-25.18-87.75-50.73-131.82-75.74C5.75,294.43-.05,284.2,0,269.7c.17-51.87.21-103.74,0-155.61-.06-14.25,5.96-24.15,18.2-31.09,27.81-15.77,55.17-32.34,83.24-47.61C123.7,23.28,143.73,6.88,168.73,0,169.98,0,171.23,0,172.48,0c5.42,2.06,11.24,3.43,16.21,6.27,44.99,25.67,89.82,51.62,134.72,77.45,11.88,6.84,17.62,16.95,17.59,30.75-.12,51.59-.1,103.18,0,154.78.03,14.42-5.82,24.94-18.56,32.13-29.21,16.51-58.01,33.73-87.32,50.07-19.97,11.13-38.57,24.85-60.4,32.55Zm93.96-248.54c-19.98-37.85-69.31-66.56-123.19-54.74-51.05,11.2-94.26,59.39-88.73,122.24,4.44,50.56,45.46,96.67,102.56,102.19,27.29,2.64,52.56-3.87,75.28-19.48,14.28-9.82,25.71-22.25,34.47-37.58-16.76-9.71-33.04-19.15-49.58-28.73-.91,1.41-1.62,2.54-2.37,3.66-12.84,19.36-36.51,28.89-58.77,23.98-29.68-6.53-47.51-34.67-43.5-63.32,4.35-31.13,35.93-53.42,66.64-46.55,14.96,3.35,26.81,11.26,35.34,23.98,1.62,2.41,2.87,2.9,5.3,1.21,2.55-1.77,5.38-3.15,8.09-4.71,12.75-7.35,25.5-14.7,38.46-22.17Zm38.49,62.82v-11.97c2.87-.29,6.5.37,7.97-1.1,1.45-1.45.93-5.09.9-7.76-.1-7.16-6.38-1.38-8.94-4.6-.1-2.19-.23-4.98-.36-7.71h-11.52v8.43h-13.08c0-2.32.21-4.34-.09-6.28-.14-.89-1.21-2.25-1.96-2.31-3.06-.26-6.16-.11-9.45-.11-.17,3.25-.32,6.03-.46,8.72-9.71,1.03-9.65,1.03-9.07,9.43.14,2.01.82,2.82,2.9,2.94,6.42.39,6.41.47,6.41,7.1,0,.12,0,.25,0,.37,0,5.24,0,5.18-5.18,5.37-1.27.04-3.57.51-3.62.95-.32,3.32-.48,6.74.06,10,.11.64,3.47.77,5.34,1.07.96.16,1.94.17,3.18.28.16,2.92.31,5.71.45,8.39,11,1.55,11.08,1.5,11.62-7.58.01-.22.2-.43.37-.76h12.47c.13,3.01.25,5.69.37,8.47h11.45v-7.83c3.01-2.73,10.05,2.56,9.16-5.66-.24-2.22.51-5.8-.55-6.4-2.25-1.29-5.39-1.05-8.38-1.47Z"/>
  <path class="cls-1" d="m295.08,198.5h-12.64v-12.23h12.64v12.23Z"/>
</svg>