<?xml version="1.0" encoding="UTF-8"?>
<svg id="Calque_1" data-name="Calque 1" xmlns="http://www.w3.org/2000/svg" viewBox="0 0 384 384">
  <defs>
    <style>
      .cls-1 {
        fill: #f4f4f4;
      }
    </style>
  </defs>
  <path class="cls-1" d="m192.07,379.33c-14.1.49-27.44-1.28-40.73-4.28-18.49-4.18-35.84-10.85-52.29-20.31-17.34-9.97-32.76-22.28-46.08-37.04-15.76-17.47-27.94-37.27-36.37-59.38-3.67-9.63-6.63-19.46-8.63-29.48-1.23-6.2-2.03-12.59-2.67-18.96-.96-9.48-.79-18.94-.48-28.36.33-10.03,1.9-19.96,4.04-29.86,3.42-15.75,8.95-30.64,16.21-44.9,6.67-13.1,14.82-25.26,24.48-36.44,11.08-12.83,23.54-24.1,37.47-33.69,12.59-8.66,26.23-15.44,40.57-20.69,7.56-2.76,15.19-5.57,23.02-7.22,5.96-1.25,12.13-1.99,18.25-2.57,7.77-.73,15.57-1.57,23.35-1.47,27.43.33,53.86,5.83,78.74,17.45,15.58,7.28,30.23,16.34,43.19,27.8,12.08,10.67,22.66,22.68,31.83,35.99,10.67,15.49,18.8,32.12,24.62,49.99,2.44,7.51,4.37,15.21,6.12,22.81,1.58,6.9,1.87,14.38,1.99,21.67.06,3.71.52,7.45.55,11.09.06,8.4-.56,16.84-1.64,25.17-.26,2,.04,4.05-.44,6.18-2.45,10.95-5.32,21.76-8.95,32.37-6.02,17.59-14.9,33.67-25.97,48.56-6.44,8.66-13.44,16.87-21.35,24.26-15.16,14.17-32.1,25.8-50.94,34.43-15.55,7.13-31.71,12.48-48.82,14.82-9.83,1.35-19.61,2.56-29.07,2.07Zm73.86-206.82c8.25,0,16.49-.04,24.74.03,1.82.02,2.96-.28,2.47-2.42-1.62-7.09-3.27-14.22-6.06-20.93-6.06-14.57-14.89-27.12-27.09-37.41-16.78-14.15-36.36-20.95-57.83-22.35-11.54-.75-23.14-.42-34.57,2.68-7.54,2.04-15.08,3.98-22.11,7.37-12.43,5.98-23.02,14.34-31.88,24.99-9.74,11.71-16.69,24.77-20.64,39.47-1.06,3.94-1.42,7.97-1.99,11.98-.53,3.67-1.23,7.54-1.51,11.17-.84,10.82.74,21.44,3.64,32.03,1.32,4.81,2.42,9.63,4.39,14.24,6.63,15.46,15.93,28.94,29.39,39.25,6.92,5.3,14.13,10.16,22.27,13.49,6.21,2.55,12.43,4.66,19.14,5.96,6.55,1.27,13,3.35,19.72,3.31,7.95-.05,15.85.43,23.85-1.75,3.63-.99,7.87-1.69,11.87-2.23,4.36-.59,8.49-2.98,12.67-4.72,16.23-6.74,29.19-17.68,39.46-31.73,9.39-12.85,14.77-27.42,17.55-43.09.59-3.32-.06-3.38-2.73-3.37-16.37.08-32.74.09-49.1,0-2.46-.01-3.22.89-3.9,3.2-3.51,11.92-10.54,21.24-21.43,27.45-7.97,4.54-16.57,5.75-25.65,5.45-10.3-.34-19.1-4.26-26.69-10.69-12.73-10.79-17.88-25.3-18.28-41.51-.19-7.84,1.49-15.59,4.51-22.92,9.86-23.94,33.17-35.02,57.87-27.86,14.72,4.27,24.02,14.43,29.68,28.19.97,2.35,2.05,2.82,4.27,2.79,7.99-.11,15.99-.04,23.99-.04Z"/>
</svg>