<?xml version="1.0" encoding="UTF-8"?>
<svg id="Calque_1" data-name="Calque 1" xmlns="http://www.w3.org/2000/svg" viewBox="0 0 341.15 383.86">
  <defs>
    <style>
      .cls-1 {
        fill: #f4f4f4;
      }
    </style>
  </defs>
  <path class="cls-1" d="m176.61,383.86h-12.75c-3.44-1.55-7.04-2.64-10.36-4.59-14.96-8.83-29.99-17.53-45.1-26.09-11.72-6.64-23.44-13.28-35.06-20.05-17.93-10.44-35.84-20.91-53.89-31.13-5.9-3.34-11.48-6.96-14.62-13.3.06-1.6,1.48-1.85,2.5-2.44,14.12-8.18,28.2-16.42,42.38-24.48,7.35-4.18,14.4-8.89,22.14-12.36.68.87,1.43,1.69,2.02,2.62,4.73,7.49,10.07,14.56,16.32,20.79,10.23,10.21,22.26,17.95,35.49,23.75,13.09,5.74,26.86,8.69,41.13,9.31,6.56.29,13.04-.52,19.56-1.37,9.85-1.3,19.25-3.98,28.28-7.96,15.5-6.82,29.27-16.08,40.46-28.98,4.29-4.94,8.57-9.82,11.89-15.53,1.64-2.82.67-4.05-1.62-5.35-5.7-3.23-11.38-6.49-17.06-9.77-8.52-4.92-17.03-9.88-25.56-14.8-1.76-1.02-3.16-1.61-4.84.74-13.98,19.54-32.77,28.86-56.91,25.23-17.23-2.59-30.09-12.17-39.26-26.86.5-2.2,2.62-2.56,4.15-3.45,29.83-17.25,59.7-34.44,89.57-51.63,1.51-.87,3.09-1.66,3.9-3.35,3.12-.11,5.28-2.28,7.76-3.7,13.76-7.87,27.68-15.48,41.06-24.01,12.69-6.06,24.52-13.66,36.68-20.64,10.58-6.08,21.38-11.78,31.55-18.55,4.24,5.95,4.62,12.85,4.63,19.74.06,52.18.16,104.36-.07,156.54-.05,11.85-5.7,21.16-16.01,27.36-4.16,2.5-8.38,4.88-12.58,7.31-16.74,9.67-33.48,19.34-50.22,29.01-13.98,8.07-27.86,16.33-41.99,24.14-14.5,8.01-28.08,17.73-43.61,23.87Zm107.81-191.71q0-6.53-6.44-6.53h-.37q-5.83,0-5.83-5.94,0-6.66-6.66-6.66-6.07,0-6.07,6,0,6.6-6.65,6.6-6.04,0-6.04,6.1,0,6.53,6.36,6.53t6.33,6.17q0,6.43,6.39,6.43,6.34,0,6.34-6.23,0-6.37,6.53-6.37,6.12,0,6.12-6.1Zm28.41-19.14q-6.48,0-6.48,6.03,0,6.57-6.71,6.57-5.95,0-5.95,5.91,0,6.73,6.62,6.73,6.04,0,6.04,6.12,0,6.48,6.41,6.48,6.32,0,6.32-6.14,0-6.47,6.42-6.47,6.27,0,6.27-6.28,0-6.36-6.19-6.36-6.49,0-6.49-6.39,0-6.21-6.25-6.21Z"/>
  <path class="cls-1" d="m336.45,95.88c-10.17,6.77-20.97,12.47-31.55,18.55-12.16,6.99-24,14.58-36.68,20.64-.53-2.62-2.06-4.73-3.47-6.9-4.49-6.93-10.28-12.68-16.15-18.43-11.65-11.41-24.99-19.84-40.61-24.75-8.82-2.77-17.71-5.15-26.89-6.23-13.34-1.56-26.52-.08-39.43,3.23-17.84,4.58-33.54,13.31-47.29,25.6-12.95,11.58-22.32,25.69-29.33,41.42-2.66,5.96-4.27,12.31-5.74,18.69-1.5,6.56-1.54,13.28-2.5,19.88-.94,6.43.56,12.68,1.02,18.89.83,11.27,4.09,22.23,9.21,32.53,1.7,3.41,4.08,6.55,4.82,10.42-7.75,3.47-14.8,8.18-22.14,12.36-14.18,8.07-28.27,16.3-42.38,24.48-1.03.6-2.44.84-2.5,2.44C1.57,283.08-.03,277.27,0,270.56c.25-52.06.13-104.13.14-156.2,0-2.49-.08-5.02.29-7.48,1.14-7.5,4.5-14.11,10.35-18.81,9.24-7.43,20.14-12.33,30.31-18.33,18.64-11.01,37.42-21.78,56.29-32.4C119.53,24.88,140.81,10.86,163.86,0h12.75c5.04,2.27,10.26,4.08,15.03,7.03,8.99,5.56,18.19,10.79,27.36,16.07,34.64,19.96,69.3,39.89,103.97,59.82,5.57,3.21,10.66,6.89,13.48,12.95Z"/>
  <path class="cls-1" d="m121.78,221.22c-5.08-8.96-8.17-18.43-8.2-28.87-.04-12.92,4.03-24.39,11.68-34.62,9.05-12.11,21.17-20.03,36.06-21.72,22.87-2.6,43.36,3.74,58.07,26.78-.8,1.69-2.38,2.48-3.89,3.35-29.86,17.2-59.73,34.38-89.57,51.63-1.53.89-3.65,1.25-4.15,3.45Z"/>
</svg>