<?xml version="1.0" encoding="UTF-8"?>
<svg id="Calque_1" data-name="Calque 1" xmlns="http://www.w3.org/2000/svg" viewBox="0 0 360.11 411.82">
  <defs>
    <style>
      .cls-1 {
        fill: #f4f4f4;
      }
    </style>
  </defs>
  <path class="cls-1" d="m186.36,411.82h-11.28c-1.54-1.42-2.85-3.64-4.64-4.13-43.38-11.95-86.78-23.86-130.28-35.33-6.18-1.63-8.16-4.52-8.57-10.45-1.53-21.95-3.29-43.89-5.24-65.8-3.5-39.27-7.25-78.53-10.81-117.79-3.17-35-6.26-70-9.31-105.01C4.08,48.86,2.06,24.41,0,0h360.11c-2.99,33.78-5.95,66.89-8.84,100.01-2.69,30.74-5.24,61.49-7.97,92.22-5.01,56.38-10.18,112.75-15.06,169.15-.51,5.92-2.45,9.14-8.46,10.76-42.92,11.59-85.77,23.42-128.6,35.36-1.86.52-3.22,2.83-4.82,4.31Zm-109.29-202.18c4.02,0,6.94.01,9.86,0,47.25-.21,94.49-.29,141.74-.78,6.91-.07,8.91,1.74,7.98,8.66-2.08,15.41-3.72,30.89-4.99,46.38-.45,5.46-2.43,8.16-7.73,9.46-11.97,2.93-23.74,6.69-35.76,9.34-5.03,1.11-10.69,1.23-15.71.14-12.29-2.68-24.3-6.59-36.55-9.48-5.55-1.31-7.32-4.45-7.56-9.62-.37-8.03-.85-16.08-1.8-24.06-.25-2.12-2.35-5.71-3.69-5.75-14.11-.42-28.23-.26-43.03-.26,2.08,24.26,3.85,46.68,6.17,69.04.23,2.23,3.42,5.27,5.82,6,24.11,7.24,48.4,13.89,72.52,21.09,10.11,3.02,19.91,3.15,30.03.26,23.7-6.75,47.4-13.52,71.28-19.59,6.49-1.65,8.62-4.74,9.05-10.85,1.53-21.68,3.23-43.34,5.11-64.99,4.37-50.24,8.64-100.5,13.59-150.69.78-7.95-1.65-9.03-8.38-9.02-70.07.15-140.14.1-210.2.12-2.84,0-5.68.29-9.14.47.82,12.12,2.03,23.32,2.15,34.53.07,6.69,2.17,8.55,8.85,8.48,49.93-.52,99.86-.65,149.8-.89,5.79-.03,11.57,0,18.42,0-.99,14.36-1.93,27.68-2.81,41.01-.35,5.35-3.87,5.26-7.96,5.29-48.32.41-96.63.93-144.95,1.48-5.01.06-10.01.42-16.04.69,1.32,14.72,2.57,28.51,3.92,43.52Z"/>
</svg>