<?xml version="1.0" encoding="UTF-8"?>
<svg id="Calque_1" data-name="Calque 1" xmlns="http://www.w3.org/2000/svg" viewBox="0 0 361.55 412.02">
  <defs>
    <style>
      .cls-1 {
        fill: #f4f4f4;
      }
    </style>
  </defs>
  <path class="cls-1" d="m184.44,412.02h-4.83c-2.75-1.54-5.33-3.6-8.27-4.55-46.14-14.9-92.28-29.78-138.54-44.28-6.2-1.94-8.64-5.14-9.03-11.25-2.21-34.01-4.51-68.02-6.91-102.02-3.49-49.53-7.15-99.04-10.6-148.57C4.03,69.51,2.03,37.64.02,5.76-.11,3.79.56,1.77.82,0h360.44c0,12.16.7,23.9-.11,35.54-5.04,72.28-10.43,144.53-15.69,216.79-2.44,33.45-4.94,66.9-7.24,100.36-.36,5.24-2.3,7.9-7.58,9.59-46.68,14.96-93.25,30.23-139.82,45.54-2.34.77-4.27,2.77-6.39,4.2ZM297.79,60.03H63.88c3.76,53.04,7.47,105.55,11.26,158.96h163.57c-1.46,18.85-2.6,36.78-4.48,54.63-.3,2.82-3.41,6.67-6.12,7.7-14.01,5.34-28.24,10.1-42.54,14.61-3.05.96-6.94.84-10.02-.12-13.28-4.17-26.35-9.04-39.63-13.22-5.28-1.66-8.33-3.95-8.09-10.03.08-2-2.23-5.84-3.53-5.88-15.19-.42-30.39-.27-45.79-.27,1.08,16.36,1.84,31.08,3.24,45.75.2,2.14,3.07,5.05,5.31,5.82,28.61,9.88,57.24,19.73,86.11,28.8,5.4,1.7,12.32,1.27,17.81-.48,27.81-8.84,55.34-18.58,83.08-27.66,5.27-1.73,6.84-4.45,7.18-9.79,2.28-35.88,4.95-71.74,7.46-107.6.72-10.26,1.33-20.53,2.01-30.97-2.82-.15-4.41-.3-6-.3-50.2.08-100.41.16-150.61.26-13.47.03-13.64.06-14.58-13.43-1.09-15.68-1.87-31.39-2.86-48.42,18.59,0,36.24,0,53.9,0,39.46-.02,78.92.02,118.38-.23,2.19-.01,6.17-2.18,6.28-3.6,1.2-14.63,1.78-29.32,2.57-44.56Z"/>
</svg>