<?xml version="1.0" encoding="UTF-8"?>
<svg id="Calque_1" data-name="Calque 1" xmlns="http://www.w3.org/2000/svg" viewBox="0 0 323.54 324.08">
  <defs>
    <style>
      .cls-1 {
        fill: #f4f4f4;
      }
    </style>
  </defs>
  <path class="cls-1" d="m323.54,0v7.6c-.79,3.01-2.03,5.98-2.3,9.03-1.65,18.47-2.99,36.96-4.61,55.43-3.28,37.37-6.63,74.74-10.03,112.1-3.23,35.47-6.59,70.93-9.77,106.41-.4,4.47-2.12,6.58-6.75,7.44-20.49,3.82-40.91,8.07-61.37,12.1-20.24,3.99-40.49,7.9-60.11,11.73,1.32.54,3.44,1.39,5.55,2.25h-26.58c2.56-.59,5.12-1.18,9.32-2.15-3.08-.77-4.61-1.27-6.17-1.53-15.76-2.66-31.58-5.04-47.29-7.99-23.16-4.35-46.25-9.09-69.36-13.71-3.92-.78-7.62-1.33-8.07-6.96-1.85-22.89-4.18-45.73-6.23-68.6-3.45-38.61-6.8-77.23-10.23-115.85-2.44-27.5-4.95-54.99-7.42-82.48C1.4,16.75.74,8.68,0,0h323.54Zm-148.03,54.45c-.26,1.1-.44,1.5-.44,1.91-.07,38.38-.08,76.77-.26,115.15-.02,4.45,2.68,3.96,5.42,3.97,12.02.03,24.04,0,36.07.1,3.06.03,6.12.46,9.9.76-1.62,16.67-2.95,32.61-4.98,48.46-.27,2.07-3.84,4.76-6.32,5.34-11.26,2.65-22.71,4.5-34.01,7.01-2.31.51-6,2.46-6.11,3.96-.6,8.27-.29,16.6-.29,25.4,22.85-4.42,44.46-8.76,66.15-12.66,5.14-.93,6.69-3.03,7.05-8.19,1.68-23.97,3.89-47.9,5.88-71.84.69-8.26,1.29-16.53,2-25.64h-53.11v-67.33h60.02c.6-8.95,1.17-17.43,1.78-26.4h-88.76Zm-27.88,212.04V54.11h-26.84v178.81c-4.64-.95-8.47-2.01-12.38-2.47-4.55-.53-6.65-2.65-6.88-7.3-.33-6.68-1.1-13.34-1.69-20.05h-27.98c1.29,15.26,2.33,29.96,3.99,44.6.23,2.05,3.21,4.93,5.37,5.42,13.95,3.16,28.02,5.77,42.06,8.55,7.99,1.58,15.98,3.16,24.34,4.82Z"/>
</svg>