<?xml version="1.0" encoding="UTF-8"?>
<svg id="Calque_1" data-name="Calque 1" xmlns="http://www.w3.org/2000/svg" viewBox="0 0 123.02 123.02">
  <defs>
    <style>
      .cls-1 {
        fill: #f4f4f4;
      }
    </style>
  </defs>
  <path class="cls-1" d="m74.28,0c1.13,3.22,2.49,6.38,3.34,9.67,1.15,4.47-.4,8.55-3.32,11.82-3.61,4.04-7.68,7.66-11.56,11.44-.68.66-1.37,1.33-2.15,1.84-6.43,4.24-6.87,10.24-4.84,16.84,1.03,3.37,2.44,6.63,3.65,9.94.48,1.3.89,2.62,1.45,4.26-.71-.14-1.05-.11-1.23-.27-5.34-4.51-10.17-9.43-12.78-16.1-2.58-6.61-.41-12.25,3.98-17.18,2.24-2.51,4.92-4.64,7.52-6.79,2.42-2.01,4.98-3.86,7.52-5.72,5.32-3.92,7.6-9.25,7.49-15.74-.02-1.34-.01-2.68-.01-4.02.32,0,.63,0,.95,0Z"/>
  <path class="cls-1" d="m36.73,102.14c-3.25,1.04-6.49,2.07-9.74,3.11.03.29.05.59.08.88,3.35.72,6.67,1.88,10.05,2.08,9.66.57,19.39,1.44,29.02.9,9.76-.54,19.72-.7,29.12-4.09,1.71-.62,3.16-1.97,4.72-2.99,1.66,2.76,1.3,4.5-1.68,6.13-5.27,2.86-11.06,3.94-16.91,4.86-15.98,2.51-32.01,2.6-48.05.93-3.57-.37-7.12-1.25-10.59-2.23-3-.85-5.06-3.15-4.73-4.93.49-2.68,2.79-3.58,5.01-4.04,3.92-.81,7.91-1.29,11.88-1.85.54-.08,1.14.2,1.71.32.04.31.08.61.11.92Z"/>
  <path class="cls-1" d="m38.03,71.54c16.55,1.41,32.65,1.02,48.69-1.83.09.24.18.48.27.71-.58.49-1.11,1.07-1.75,1.47-6.01,3.77-12.79,5.02-19.65,6.17-9.46,1.59-18.85.64-28.22-.51-2.44-.3-4.94-1.15-7.09-2.33-1.24-.68-2.51-2.52-2.52-3.84,0-1.09,1.63-2.66,2.88-3.19,5.16-2.18,10.68-2.49,16.21-2.52.41,0,.82.32,1.51.61-2.99,2.72-7.62,1.6-10.34,5.24Z"/>
  <path class="cls-1" d="m66.69,70.45c.47-1.71.68-2.76,1.04-3.75,1.18-3.26.88-6.07-1.25-9.06-1.97-2.75-3.47-5.97-4.54-9.19-1.44-4.36.17-8.2,3.39-11.36,5.26-5.17,11.8-8.3,18.35-11.41.47-.22,1.12-.08,1.69-.1.1.19.2.39.31.58-.73.73-1.45,1.48-2.2,2.17-3.64,3.35-7.41,6.57-10.9,10.07-2.66,2.67-3.23,5.8-.94,9.18,1.06,1.55,1.84,3.29,2.75,4.94,2.2,4.03,1.63,7.88-.79,11.58-1.62,2.48-3.56,4.65-6.9,6.34Z"/>
  <path class="cls-1" d="m81.41,99.52c-2.11.71-4.19,1.53-6.34,2.11-9.54,2.6-19.14,2.36-28.74.38-1.44-.3-2.86-.9-4.18-1.56-2.18-1.09-3.16-3.37-2.44-5.29.52-1.39,4.11-3.12,5.66-2.7.27.07.61.3.7.55.83,2.06,2.73,2.22,4.5,2.47,6.75.95,13.52.93,20.17-.6,2.67-.61,4.9-.39,7.05,1.27,1.16.9,2.41,1.66,3.62,2.49,0,.29,0,.59-.01.88Z"/>
  <path class="cls-1" d="m43.58,79.85c-.19.42-.33.87-.58,1.25-.84,1.34-.47,2.13,1.08,2.2,5.73.27,11.47.8,17.18.61,4.6-.16,9.18-1.2,13.75-1.91,2.51-.39,6.54,1.21,7.77,3.36.18.31-.35,1.51-.67,1.56-8.94,1.31-17.86,3.02-26.86,3.54-4.88.28-9.88-1.44-14.81-2.36-.96-.18-1.91-.75-2.73-1.34-2.43-1.72-2.34-3.59.27-5.04,1.67-.93,3.45-1.65,5.19-2.46.14.2.28.39.41.59Z"/>
  <path class="cls-1" d="m35.25,116.66c.7-.16,1.4-.46,2.09-.46,11.66.07,23.31.24,34.97.25,9.58,0,19.04-.87,27.83-5.18,1.88-.92,3.65-2.08,5.71-3.27.24,2.57-1.09,3.97-2.52,5.32-2.92,2.74-6.62,3.92-10.35,4.89-9.47,2.46-19.16,2.75-28.85,2.57-5.9-.11-11.81-.54-17.7-1.04-3.2-.27-6.37-.98-9.54-1.55-.57-.1-1.08-.54-1.62-.82l-.02-.71Z"/>
  <path class="cls-1" d="m86.93,88.31c.95-.88,1.89-1.76,2.85-2.63,2.5-2.27,5.27-4.31,7.47-6.84,4.11-4.74,2.62-8.89-3.45-10.35-1.64-.39-3.27-.8-5.3-1.3,3.47-3.1,10.06-3.87,13.58-2.03,3.29,1.72,5.63,6.25,4.75,10.5-.43,2.09-1.73,4.26-3.22,5.82-3.99,4.16-9.37,5.89-14.76,7.44-.49.14-1.06.02-1.6.02-.1-.21-.2-.41-.31-.62Z"/>
</svg>