<?xml version="1.0" encoding="UTF-8"?>
<svg id="Calque_2" data-name="Calque 2" xmlns="http://www.w3.org/2000/svg" viewBox="0 0 110.62 104.96">
  <defs>
    <style>
      .cls-1 {
        fill: #f4f4f4;
      }
    </style>
  </defs>
  <g id="Calque_1-2" data-name="Calque 1">
    <path class="cls-1" d="m108.01,76.68c-.55,1.04-1.07,2.11-1.67,3.12-6.82,11.51-16.57,19.3-29.46,23.05-3.58,1.04-7.25,1.62-10.97,1.93-3.9.32-7.78.17-11.66-.1-7.52-.53-14.48-2.93-21.07-6.48-11.77-6.35-20.89-15.35-27.02-27.27-2.97-5.79-4.96-11.91-5.75-18.37-1.22-9.9.17-19.35,5.61-27.88,2.06-3.23,4.64-6.13,6.99-9.18.04-.05.15-.06.35-.13-.16.45-.29.82-.44,1.18-2.72,6.69-3.61,13.66-2.99,20.81.74,8.5,3.39,16.42,7.9,23.67,9.05,14.57,21.92,24.11,38.42,28.77,3.55,1,7.2,1.5,10.89,1.69,2.02.1,4.06.26,6.08.2,8.91-.26,17.38-2.21,25.07-6.91,3.24-1.98,6.14-4.36,8.68-7.18.3-.33.6-.66.9-.99.05.03.1.06.16.1l-.02-.03Z"/>
    <path class="cls-1" d="m110.62,48.77c-1.59,4.11-4.02,7.67-7.09,10.8-5.28,5.37-11.72,8.55-19.09,9.89-4.17.76-8.37.81-12.61.58-8.77-.47-16.19-4.12-22.96-9.36-5.67-4.38-10-9.86-12.99-16.38-1.88-4.1-3-8.39-3.34-12.89-.48-6.26.55-12.23,3.62-17.72,1.55-2.76,3.47-5.32,5.42-7.87,0,.1.03.21,0,.3-3.88,9.73-3.24,19.34,1.26,28.62,6.12,12.62,16.18,20.71,29.61,24.65,4.57,1.34,9.26,1.85,14.01,1.49,8.18-.62,15.46-3.45,21.45-9.21.95-.91,1.81-1.92,2.71-2.88v-.02Z"/>
    <path class="cls-1" d="m106.89,29.19c-3.04,4.92-7.03,8.2-12.39,9.7-3.48.97-7.03,1.06-10.58.57-9.68-1.33-18.21-7.77-21.98-16.76-3.38-8.04-2.42-15.59,3.01-22.5.05-.06.13-.09.3-.2-.03.21-.02.35-.07.47-1.66,4.73-1.5,9.47.24,14.09,3.8,10.1,11.06,16.36,21.59,18.73,2.12.48,4.34.7,6.52.74,4.83.07,9.24-1.23,12.86-4.61.06-.05.15-.07.5-.23Z"/>
  </g>
</svg>