<?xml version="1.0" encoding="UTF-8"?>
<svg id="Calque_1" data-name="Calque 1" xmlns="http://www.w3.org/2000/svg" viewBox="0 0 603.76 603.85">
  <defs>
    <style>
      .cls-1 {
        fill: #f4f4f4;
      }
    </style>
  </defs>
  <path class="cls-1" d="m.05,464.93v-146.42c.46.39.78.03,1.04-.26,1.78-2,3.46-4.08,5.31-6.01,4.15-4.33,8.44-8.54,12.57-12.88,7.39-7.77,14.65-15.66,22.06-23.4,18.26-19.05,36.36-38.25,54.44-57.47,6.31-6.71,12.67-13.38,19.03-20.04,13.29-13.91,26.46-27.93,39.67-41.92,5.95-6.3,11.99-12.53,18-18.79,9.51-9.9,18.9-19.92,28.35-29.88,9.21-9.72,18.41-19.44,27.62-29.15,6.74-7.11,13.43-14.27,20.24-21.32,11.22-11.63,22.23-23.46,33.48-35.06,5.74-5.93,11.37-12.01,16.97-18.11,1.22-1.33,2.92-2.23,3.53-4.09.84-.04,1.67-.12,2.51-.12C403.43,0,502.02,0,600.6,0h2.39c.15.26.31.51.46.77-.8.58-1.69,1.06-2.38,1.75-63.85,63.82-127.68,127.66-191.5,191.5-8.71,8.71-17.31,17.53-26.02,26.24-7.57,7.57-15.23,15.03-22.82,22.58-9.68,9.63-19.31,19.3-28.97,28.95-9.11,9.11-18.23,18.22-27.33,27.34-.64.64-1.49,1.13-1.68,2.13-.83.69-1.73,1.32-2.49,2.08-5.44,5.44-10.73,11.03-16.29,16.35-7.12,6.82-13.86,14.05-20.84,21.01-15.78,15.72-31.75,31.25-47.34,47.14-6.56,6.69-13.36,13.13-19.85,19.89-8.06,8.39-16.41,16.5-24.67,24.7-10.7,10.62-21.45,21.19-32.15,31.82-4.28,4.25-8.29,8.77-12.71,12.86-8.54,7.92-16.56,16.35-24.76,24.61-10.15,10.23-20.45,20.31-30.54,30.6-1.23,1.25-1.95,1.03-3.02-.1-2.64-2.8-4.91-5.98-7.95-8.37-2.46-1.93-4.7-4.08-6.72-6.41-5.83-6.7-12.42-12.66-18.71-18.88-6.48-6.4-12.46-13.33-19.44-19.22-.7-.59-1.32-1.29-1.88-2.02-3.51-4.55-8.29-7.78-12.2-11.91-.26-.28-.75-.33-1.14-.49Z"/>
  <path class="cls-1" d="m.05,464.93c.38.16.87.22,1.14.49,3.91,4.13,8.7,7.37,12.2,11.91.56.73,1.18,1.43,1.88,2.02,6.98,5.9,12.96,12.82,19.44,19.22,6.29,6.22,12.88,12.18,18.71,18.88,2.02,2.32,4.26,4.48,6.72,6.41,3.04,2.39,5.3,5.57,7.95,8.37,1.07,1.13,1.79,1.35,3.02.1,10.09-10.29,20.38-20.37,30.54-30.6,8.19-8.25,16.22-16.69,24.76-24.61,4.41-4.1,8.43-8.61,12.71-12.86,10.69-10.63,21.45-21.2,32.15-31.82,8.26-8.2,16.61-16.3,24.67-24.7,6.49-6.76,13.29-13.2,19.85-19.89,15.6-15.9,31.57-31.42,47.34-47.14,6.99-6.96,13.72-14.19,20.84-21.01,5.56-5.33,10.85-10.92,16.29-16.35.76-.76,1.66-1.39,2.49-2.08.75.67,1.53,1.3,2.23,2.01,24.71,24.85,49.52,49.59,74.12,74.54,35.49,36,71.28,71.7,106.92,107.56,14.42,14.51,28.84,29.01,43.2,43.57,24.72,25.08,49.69,49.91,74.55,74.84-200.48,0-400.96,0-601.45.05-1.89,0-2.31-.42-2.31-2.31.06-45.54.05-91.07.05-136.61Z"/>
  <path class="cls-1" d="m.05.02C17.23.01,34.42,0,51.6,0c82.58.02,165.15.03,247.73.06,1.01,0,2.01.04,3.02.06-.6,1.86-2.31,2.76-3.53,4.09-5.59,6.1-11.22,12.18-16.97,18.11-11.25,11.61-22.25,23.44-33.48,35.06-6.8,7.05-13.5,14.21-20.24,21.32-9.21,9.72-18.42,19.43-27.62,29.15-9.44,9.97-18.83,19.98-28.35,29.88-6.01,6.25-12.05,12.49-18,18.79-13.21,13.99-26.37,28.01-39.67,41.92-6.36,6.66-12.72,13.33-19.03,20.04-18.08,19.22-36.18,38.42-54.44,57.47-7.42,7.74-14.68,15.63-22.06,23.4-4.14,4.35-8.42,8.55-12.57,12.88-1.85,1.93-3.53,4.01-5.31,6.01-.26.29-.57.65-1.04.26V.02Z"/>
</svg>