<?xml version="1.0" encoding="UTF-8"?>
<svg id="Calque_2" data-name="Calque 2" xmlns="http://www.w3.org/2000/svg" viewBox="0 0 666.98 408.34">
  <defs>
    <style>
      .cls-1 {
        fill: #f4f4f4;
      }
    </style>
  </defs>
  <g id="Calque_1-2" data-name="Calque 1">
    <g>
      <path class="cls-1" d="m492.38,120.19c0,29.39-.01,58.78.03,88.17,0,1.95-.25,3.85-.49,5.76-.3,2.43-2.07,3.89-4.06,5.05-5.56,3.22-11.13,6.41-16.69,9.63-14.83,8.56-29.66,17.13-44.49,25.7-.53.31-1.04.64-1.59.92-3.05,1.56-5.86,1.74-9.08-.15-20.5-12-41.1-23.83-61.67-35.7-2.43-1.4-4.52-2.99-5.17-5.98-.15-.68-.43-1.09-.1-1.87.33-.78.11-1.8.11-2.72,0-22.65,0-45.31,0-67.96,0-.1,0-.21,0-.31-.54-4.77,1.4-7.86,5.71-10.18,8.8-4.72,17.36-9.89,26.01-14.89,11.48-6.62,22.97-13.22,34.42-19.91,3.64-2.13,7.11-2.21,10.73-.06,4.21,2.5,8.47,4.9,12.71,7.34.62.36,1.21.81,1.87,1.04,1.99.69,3.01-.04,3.74-2.13.43-1.23.31-2.41.31-3.61.02-30.51.02-61.02.02-91.53,0-.92-.04-1.84.02-2.75.2-3.48,2.81-4.99,5.99-3.39,2.09,1.05,4.11,2.25,6.16,3.39,9.87,5.5,19.73,11,29.59,16.51.98.55,1.98,1.08,2.85,1.77,1.65,1.31,2.69,2.92,2.84,5.17.11,1.72.24,3.43.24,5.16,0,29.18,0,58.37,0,87.55Zm-47.98,55.07c0-3.67-.09-7.34.04-11.01.07-1.96-.54-3.18-2.31-4.17-6.32-3.52-12.58-7.13-18.79-10.83-2.01-1.2-3.68-1.08-5.66.09-6.13,3.64-12.31,7.19-18.53,10.67-1.7.95-2.47,2.09-2.45,4.1.1,7.44.08,14.88,0,22.32-.02,1.85.59,2.98,2.24,3.9,6.49,3.63,12.92,7.36,19.32,11.13,1.58.93,2.89,1.04,4.52.08,6.49-3.83,13.01-7.6,19.58-11.3,1.55-.87,2.09-1.96,2.05-3.68-.09-3.77-.03-7.54-.03-11.31Z"/>
      <path class="cls-1" d="m317.39,174.4c0,11.84-.08,23.68.04,35.52.04,3.81-1.48,6.41-4.7,8.25-8.5,4.86-16.96,9.79-25.48,14.63-6.33,3.59-12.76,7-19.06,10.62-5.65,3.25-11.26,6.6-16.78,10.07-3.59,2.26-6.86,2.24-10.56.08-20.26-11.83-40.58-23.56-60.95-35.21-3.53-2.02-5.06-4.81-5.05-8.72,0-23.68.02-47.36-.02-71.05,0-4.02,1.86-6.62,5.29-8.58,19.22-10.99,38.39-22.07,57.57-33.13,1.06-.61,2.16-1.17,3.17-1.85,3.53-2.38,6.94-2.28,10.58-.07,5.84,3.55,11.82,6.87,17.74,10.29,14.22,8.22,28.41,16.5,42.7,24.61,3.9,2.21,5.67,5.11,5.6,9.63-.17,11.63-.06,23.27-.06,34.91h-.04Z"/>
      <path class="cls-1" d="m0,185.53c0-15.11,0-30.21,0-45.32,0-.92.01-1.84,0-2.76-.06-3.8,1.11-6.42,4.88-8.48,14.39-7.9,28.52-16.26,42.75-24.45,6.28-3.61,12.63-7.09,18.81-10.86,3.54-2.16,6.83-1.92,10.21.01,20.51,11.78,40.99,23.61,61.54,35.34,3.5,2,5.02,4.77,5.01,8.73-.11,32.05-.16,64.09-.23,96.14,0,.61.02,1.23-.07,1.83-.36,2.51-2.46,3.91-4.9,3.2-.67-.19-1.29-.59-1.91-.95-11.95-6.81-23.87-13.66-35.85-20.41-3.37-1.9-4.82-4.56-4.79-8.44.11-14.39-.04-28.78.09-43.17.04-4.49-1.63-7.54-5.62-9.63-4.42-2.32-8.72-4.88-13.01-7.45-3.63-2.18-7.03-2.41-10.76,0-4.45,2.87-9.14,5.38-13.76,7.98-3.2,1.8-4.74,4.32-4.71,8.14.13,14.08.06,28.17.04,42.25,0,1.3-.31,2.65-.34,3.87-.09,3.17-1.91,4.82-4.25,6.21-3.86,2.29-7.78,4.48-11.67,6.7-7.61,4.36-15.22,8.71-22.84,13.06-1.05.6-2.09,1.24-3.21,1.65-2.7.99-4.95-.45-5.27-3.31-.09-.81-.03-1.63-.03-2.45,0-15.82,0-31.64,0-47.46H0Z"/>
      <path class="cls-1" d="m619.07,182.59c-.04-6.11-.21-12.23-.07-18.34.06-2.83-1-4.49-3.44-5.83-6.33-3.48-12.55-7.17-18.82-10.78-.99-.89-1.99-.92-3.02-.06-6.72,3.86-13.4,7.78-20.17,11.54-1.69.94-2.29,2.2-2.29,3.95,0,7.35,0,14.69,0,22.04,0,2.13.9,3.46,2.84,4.56,20.47,11.64,40.87,23.39,61.29,35.12.8.46,1.63.87,2.35,1.42,2.24,1.73,2.25,4.5.04,6.24-.56.44-1.21.74-1.84,1.09-11.85,6.59-23.71,13.16-35.54,19.77-1.91,1.07-3.84,1.78-6.09,1.65-1.06-.06-2.02-.33-2.85-.84-11.86-7.17-24.04-13.78-36.05-20.7-9.36-5.39-18.79-10.67-28.14-16.09-2.1-1.22-3.12-3.46-3.13-5.75-.06-24.18.03-48.36-.03-72.54-.01-4.23,1.59-7.06,5.31-9.16,14.19-8.04,28.28-16.26,42.41-24.41,5.69-3.28,11.38-6.55,17.06-9.85,1.77-1.03,3.21-2.74,5.53-2.54.94.22,1.89.21,2.84.03,1.39.06,2.49.85,3.63,1.51,20.28,11.76,40.52,23.57,60.83,35.26,3.56,2.05,5.35,4.75,5.25,8.89-.13,5.1-.08,10.2-.02,15.3.05,3.83-1.49,6.54-4.88,8.48-12.03,6.88-24,13.87-35.96,20.87-2.38,1.39-4.54,1.58-6.65-.39,0-.27-.1-.44-.39-.45Z"/>
      <path class="cls-1" d="m256.72,326.07c0-11.43.04-22.86-.02-34.29-.02-4.51,1.63-8.11,5.28-10.74,1.22-.88,2.55-1.6,3.86-2.34,8.45-4.84,16.97-9.58,25.36-14.53,5.97-3.52,12.07-6.8,17.97-10.44,4.78-2.95,9.81-5.51,14.72-8.25,2.2-1.23,4.59-2,7.03-1.43,2.01.47,4.08.93,5.94,2,19.51,11.3,39.03,22.59,58.56,33.85,4.88,2.82,7.14,6.97,7.13,12.6-.06,22.25,0,44.5-.04,66.75-.01,5.85-2.24,10.48-7.68,13.39-5.18,2.77-10.13,5.99-15.31,8.75-5.09,2.71-10,5.73-15.02,8.55-4.47,2.51-8.9,5.17-13.32,7.8-5.54,3.3-11.02,6.76-16.87,9.48-3.72,1.73-7.63,1.4-11.15-.61-6.61-3.79-13.09-7.8-19.62-11.73-.44-.26-.88-.52-1.28-.84-.85-.67-.93-1.44.17-1.81,2.7-.9,5.19-2.19,7.71-3.5,1.27-.66,2.73-.71,4.24.35,1.79,1.25,3.58,2.67,5.84,3.16.57.12,1.07.52,1.48,1.01.87,1.02,2.15,1.48,3.23,2.23,3.01,2.07,5.68,1.85,8.93-.06,18.19-10.72,36.51-21.24,54.85-31.7,2.29-1.31,3.01-2.82,3-5.35-.09-21.64-.09-43.27.01-64.91.01-2.52-.89-3.83-2.99-5.03-18.69-10.69-37.33-21.45-55.94-32.28-2.19-1.28-3.87-1.39-6.15-.06-18.42,10.75-36.91,21.36-55.39,32.01-.53.31-1.02.7-1.58.93-1.68.69-2.24,1.96-2.03,3.67.04.3,0,.61,0,.92,0,21.64,0,43.27,0,64.91,0,1.02.08,2.04.15,3.05.05.79.48,1.41,1.22,1.58,2.56.56,4.54,2.25,6.76,3.46,2.69,1.46,5.31,3.04,7.95,4.59,1.87,1.09,3.83,1.94,5.96,2.3,4.89.82,8.47-1.84,9.44-6.72.26-1.32.36-2.61.36-3.92,0-20.92,0-41.85,0-62.77,0-.82.01-1.63,0-2.45-.01-1.36.67-2.15,2.01-2.18,2.24-.06,4.49-.05,6.74,0,1.44.03,2.28.77,2.32,2.28.02.71.01,1.43.01,2.14,0,21.43-.08,42.87.06,64.3.03,4.48-.85,8.64-2.68,12.59-1.57,3.38-4.48,5.53-8.01,6.7-4.57,1.52-9.2,1.7-13.86.36-2.26-.65-4.46-1.49-6.51-2.64-5.69-3.2-11.4-6.36-16.99-9.74-3.96-2.4-5.87-6.14-5.88-10.78-.02-11.53,0-23.07,0-34.6Z"/>
      <path class="cls-1" d="m347.74,293.84c2.4.15,5.79-.02,9.08.83,6.02,1.56,11.62,3.98,15.47,9.11,2.31,3.07,3.33,6.77,3.37,10.63.01,1.31-.69,2.32-2.26,2.3-2.25-.02-4.49,0-6.74-.01-1.18,0-1.86-.6-2.18-1.74-.24-.88-.68-1.7-.95-2.57-1.2-3.9-4-6.11-7.8-6.99-7.08-1.64-14.18-1.47-21.17.5-3.65,1.03-5.64,7.13-3.39,10.17.69.93,1.48,2.02,2.96,1.85.29-.03.61.04.9.13,5.49,1.74,11.24,2.05,16.87,3.03,4.69.82,9.45,1.34,14,2.87,1.65.55,3.26,1.18,4.79,2,4.16,2.25,6.66,5.75,7.22,10.39,1.34,11-3.17,16.95-11.59,21.01-3.48,1.68-7.46,2.51-11.41,2.77-7.76.52-15.55.6-23.02-1.8-9.02-2.9-14.61-8.37-15.52-18.29-.28-3.02.28-3.61,3.31-3.65,1.63-.02,3.27-.03,4.9,0,2.07.05,2.96.75,3.22,2.79.63,4.91,3.53,7.98,8.08,9.2,7.92,2.12,15.96,2.14,23.9.06,3.62-.95,6.11-3.24,6.51-7.23.31-3.07-.65-4.8-3.44-6.15-2.69-1.3-5.6-1.91-8.52-2.33-5.05-.72-10.12-1.23-15.17-1.92-3.74-.51-7.42-1.36-10.93-2.82-6.02-2.51-9.46-6.82-9.76-13.49-.32-7.09,2.03-12.69,8.46-16.32,6.2-3.49,12.88-4.54,20.82-4.34Z"/>
      <path class="cls-1" d="m609.22,173.87c0,1.84-.08,3.68.02,5.51.09,1.71-.42,2.84-2.02,3.7-3.33,1.77-6.57,3.71-9.81,5.65-1.29.77-2.38.78-3.69-.01-3.31-2.01-6.67-3.95-10.07-5.81-1.36-.74-1.81-1.73-1.78-3.21.07-3.88.07-7.76,0-11.63-.03-1.5.47-2.46,1.81-3.19,3.22-1.76,6.4-3.61,9.56-5.48,1.57-.93,3.05-.92,4.61-.02,3.26,1.9,6.53,3.79,9.82,5.64,1.09.62,1.6,1.45,1.57,2.72-.05,2.04-.01,4.08-.01,6.12Z"/>
      <path class="cls-1" d="m597.26,93.11c-.95.18-1.9.19-2.84-.03.95-.62,1.9-.57,2.84.03Z"/>
      <path class="cls-1" d="m593.72,147.57c1.03-.85,2.03-.83,3.02.06-1.01-.02-2.01-.04-3.02-.06Z"/>
      <path class="cls-1" d="m619.07,182.59c.29.01.4.18.39.45-.44.11-.58-.02-.39-.45Z"/>
    </g>
  </g>
</svg>