<?xml version="1.0" encoding="UTF-8"?>
<svg id="Calque_1" data-name="Calque 1" xmlns="http://www.w3.org/2000/svg" viewBox="0 0 115.18 64.02">
  <defs>
    <style>
      .cls-1 {
        fill: #f4f4f4;
      }
    </style>
  </defs>
  <path class="cls-1" d="m56.86,58.07c-3.06.04-6.11-.09-9.15-.36-6.63-.6-13.15-1.82-19.48-3.92-4.14-1.37-8.13-3.09-11.85-5.39-2.58-1.59-4.97-3.41-7.02-5.65-1.63-1.77-2.98-3.73-3.86-5.98-1.58-4.08-1.29-8.07.7-11.94,1.06-2.07,2.5-3.86,4.17-5.48,2.46-2.4,5.28-4.3,8.29-5.93,4.06-2.19,8.35-3.81,12.79-5.06,3.43-.97,6.91-1.69,10.43-2.23,3.06-.46,6.14-.78,9.23-.95,2.9-.16,5.81-.21,8.71-.12,3.33.1,6.65.34,9.95.77,5.61.72,11.12,1.91,16.48,3.75,4.09,1.41,8.01,3.16,11.67,5.48,2.51,1.6,4.82,3.43,6.8,5.66,1.62,1.84,2.95,3.86,3.75,6.19,1.34,3.9.99,7.68-.87,11.33-1.12,2.2-2.66,4.08-4.44,5.78-2.53,2.4-5.42,4.31-8.49,5.93-4.11,2.16-8.44,3.75-12.91,4.98-3.61.99-7.27,1.72-10.97,2.23-3.72.51-7.45.83-11.21.9-.9.02-1.8,0-2.7,0Zm10.96-10.47h6.26c.5-2.54.99-5.07,1.49-7.63.17,0,.32,0,.47,0,1.64,0,3.27,0,4.91,0,1.28,0,2.56-.07,3.83-.27,1.85-.29,3.56-.92,5.06-2.06,3.85-2.93,5.49-6.86,5.26-11.63-.05-1.06-.35-2.07-.86-3.01-.93-1.71-2.36-2.79-4.17-3.43-1.48-.52-3.03-.69-4.59-.69-3.89,0-7.78,0-11.66,0-.13,0-.26.01-.42.02-1.86,9.56-3.71,19.1-5.58,28.69Zm-41.12-7.63h.49c1.51,0,3.03.01,4.54,0,.97-.01,1.94-.04,2.9-.11,1.25-.09,2.49-.33,3.67-.77,2.3-.86,4.1-2.37,5.52-4.33,1.91-2.63,2.62-5.61,2.4-8.81-.11-1.65-.72-3.13-1.86-4.36-.94-1.02-2.1-1.68-3.41-2.1-1.42-.45-2.88-.6-4.36-.6-3.87,0-7.75,0-11.62,0-.13,0-.27,0-.44,0-1.86,9.58-3.72,19.13-5.58,28.71h6.26c.49-2.53.99-5.05,1.49-7.62Zm39.95-.03c.08-.38.15-.75.23-1.12.75-3.88,1.51-7.76,2.26-11.64.23-1.18.43-2.36.29-3.57-.19-1.71-1.01-2.97-2.58-3.71-.27-.13-.55-.24-.83-.34-1.32-.45-2.68-.63-4.06-.65-2.03-.03-4.06-.02-6.1-.03-.16,0-.32,0-.53,0,.5-2.57.99-5.08,1.48-7.62h-6.21c-1.86,9.56-3.71,19.11-5.58,28.68h6.21c1.07-5.49,2.13-10.96,3.19-16.4.08-.02.11-.03.14-.03,1.75,0,3.49,0,5.24,0,.64,0,1.28.08,1.89.29.79.26,1.22.82,1.25,1.63.02.54,0,1.1-.1,1.63-.65,3.41-1.32,6.82-1.98,10.23-.17.87-.33,1.74-.51,2.64h6.3Z"/>
  <path class="cls-1" d="m76.45,35.41c.78-4,1.55-7.98,2.33-11.97.15,0,.27-.02.39-.02,1.38,0,2.75,0,4.13,0,.92,0,1.82.08,2.71.32.17.05.34.1.51.16,1.27.45,1.95,1.37,2.05,2.69.14,2.05-.29,3.99-1.27,5.79-.83,1.53-2.18,2.37-3.84,2.72-.8.17-1.62.29-2.43.32-1.43.05-2.86.02-4.3.02-.08,0-.16-.02-.27-.03Z"/>
  <path class="cls-1" d="m27.58,35.41c.78-4,1.55-7.98,2.33-11.97.15,0,.27-.02.39-.02,1.38,0,2.76,0,4.13,0,.92,0,1.82.08,2.71.32.17.05.34.1.51.16,1.29.45,1.94,1.39,2.05,2.73.13,1.48-.17,2.9-.62,4.3-.06.17-.12.33-.19.5-.78,1.99-2.22,3.24-4.32,3.68-.8.17-1.62.29-2.43.32-1.43.05-2.86.02-4.3.02-.08,0-.16-.02-.27-.03Z"/>
</svg>