<?xml version="1.0" encoding="UTF-8"?>
<svg id="Calque_1" data-name="Calque 1" xmlns="http://www.w3.org/2000/svg" viewBox="0 0 347.63 384">
  <defs>
    <style>
      .cls-1 {
        fill: #f4f4f4;
      }
    </style>
  </defs>
  <path class="cls-1" d="m179.05,384h-10.5c-12.14-2.35-22.36-8.15-31-16.95-9.04-9.2-15.97-19.84-21.42-31.42-4.02-8.55-7.48-17.36-11.24-26.16-6.37.95-12.88,2.09-19.42,2.87-16.36,1.94-32.66,2.03-48.67-2.59-28.79-8.3-42.02-31.22-34.89-60.31,3.78-15.43,11.45-28.95,20.72-41.62,4.62-6.32,9.67-12.34,14.59-18.57-2.13-2.63-4.31-5.2-6.37-7.86-11.85-15.32-22.04-31.51-26.18-50.8-5.37-24.98,5.02-45.37,28.59-55.15,17.33-7.19,35.54-7.25,53.85-5.27,6.28.68,12.53,1.69,18.43,2.5,3.83-8.78,7.07-17.46,11.29-25.63,11.37-22.03,25.2-41.59,51.74-47.04h10.5c21.71,4.14,35.47,18.59,45.85,36.61,6.01,10.43,10.58,21.71,15.38,32.8,1.29,2.98,2.4,3.45,5.41,2.91,19.42-3.48,38.9-4.92,58.38-.31,30.85,7.3,45.61,30.68,38.32,61.12-3.75,15.67-11.7,29.37-21.12,42.26-3.51,4.8-7.26,9.42-10.89,14.1,3.47,4.21,6.91,8.18,10.12,12.32,11.32,14.61,21.03,30.1,25.37,48.36,6.68,28.07-5.84,50.2-33.29,59.01-13.91,4.46-28.22,5.12-42.62,3.87-9.17-.79-18.29-2.25-27.67-3.44-.48,1.21-.99,2.59-1.56,3.95-3.28,7.82-6.07,15.89-9.95,23.39-11.38,22.01-25.16,41.62-51.72,47.04Zm58.13-193.53c-.53-10.08-1.08-21.68-1.83-33.27-.09-1.38-.94-3.19-2.03-3.94-18.27-12.49-37.42-23.46-57.48-32.82-1.13-.53-2.95-.48-4.1.06-19.96,9.27-39.01,20.17-57.16,32.62-1.19.82-2.18,2.68-2.32,4.15-2.07,21.69-1.93,43.41-.43,65.13.12,1.68,1.28,3.85,2.65,4.81,18.01,12.65,36.98,23.7,56.83,33.19,1.39.66,3.65.64,5.05-.02,19.65-9.34,38.32-20.39,56.31-32.63,2.18-1.49,3.21-3.13,3.29-5.77.3-9.99.76-19.97,1.23-31.49Zm-184.81,15.99c-2.41,2.93-5.12,6.04-7.62,9.3-9.25,12.03-17.63,24.56-21.22,39.62-3.9,16.37,2.26,27.27,18.22,32.46,1.18.38,2.4.69,3.61.98,12.83,3.14,25.77,2.61,38.72,1.06,4.9-.59,9.75-1.49,14.19-2.18-2.6-16.51-5.09-32.51-7.67-48.49-.14-.86-.8-1.81-1.5-2.39-12.08-10.04-24.21-20.03-36.73-30.36Zm196.41,81.07c14.04,2.75,27.81,4.63,41.67,3.05,7.21-.82,14.47-2.74,21.24-5.36,7.99-3.1,12.74-9.61,13.28-18.39.24-3.8-.14-7.77-1-11.49-3.5-15.21-12.04-27.8-21.39-39.92-2.47-3.21-5.16-6.26-7.38-8.94-12.53,10.34-24.67,20.31-36.72,30.4-.9.76-1.46,2.25-1.65,3.48-1.25,8.01-2.2,16.07-3.55,24.07-1.28,7.6-2.94,15.13-4.51,23.1Zm-28.46,16.52c-.64-.39-.93-.64-1.27-.76-14.5-5.36-28.99-10.75-43.53-16-1.21-.44-2.91-.21-4.17.27-9.79,3.72-19.5,7.66-29.3,11.36-4.84,1.83-9.82,3.28-15.51,5.15,4.66,9.97,8.74,19.63,13.61,28.88,4.91,9.33,11.15,17.81,20.07,23.87,9.2,6.25,18.1,6.36,27.18-.06,3.53-2.5,6.83-5.52,9.66-8.79,11.07-12.77,17.58-28.02,23.26-43.92Zm-.8-226.56c-1.57-3.92-3.02-8.17-4.93-12.19-2.83-5.96-5.44-12.15-9.17-17.54-4.58-6.61-9.55-13.23-15.53-18.51-10.65-9.41-21.56-9.13-32.44.01-15.29,12.84-22.57,30.6-29.43,48.46.5.46.65.7.86.78,14.42,5.18,28.83,10.37,43.28,15.48.96.34,2.25.44,3.18.09,14.59-5.41,29.14-10.91,44.2-16.58ZM52.73,172.69c12.46-10.02,24.54-19.69,36.56-29.44.88-.71,1.71-1.9,1.9-2.98,2.58-15.12,5.03-30.25,7.62-46-6.86-.78-14.25-1.85-21.68-2.39-11.66-.86-23.25-.33-34.34,3.87-13.71,5.19-19.28,15.33-16.29,29.65,3.89,18.59,14.86,33.25,26.23,47.3Zm242.11-.04c1.28-1.56,2.82-3.35,4.26-5.21,9.13-11.81,17.4-24.12,21.28-38.8,4.61-17.43-1.55-28.91-18.8-34.01-17.71-5.24-35.54-3.1-52.77-.08,2.55,15.49,5.01,30.63,7.59,45.75.18,1.08,1.05,2.25,1.93,2.96,12.02,9.75,24.1,19.42,36.5,29.39Zm-174.12,109.75c8.94-3.04,17.2-5.86,26.03-8.87-10.69-6.23-20.66-12.04-31.44-18.33,1.85,9.3,3.56,17.89,5.41,27.19Zm111.58-27.21c-10.87,6.35-20.86,12.19-31.5,18.4,9.05,3.04,17.36,5.82,26.07,8.74,1.84-9.2,3.54-17.71,5.43-27.15Zm27.19-82.86v35.32c6.95-6.29,13.25-12.01,19.83-17.97-6.8-5.95-13.06-11.43-19.83-17.36Zm-191.26,17.41c6.82,6.11,13.13,11.76,20.05,17.96v-35.49c-6.89,6.03-13.21,11.55-20.05,17.54Zm47.68-64.73c10.32-5.92,19.92-11.42,30.3-17.37-8.74-2.85-16.6-5.41-24.93-8.12-1.81,8.6-3.52,16.69-5.37,25.49Zm85.76-17.28c9.93,5.79,19.16,11.17,28.4,16.53.28.16.68.12,1.5.26-1.77-8.35-3.48-16.45-5.26-24.85-4.83,1.49-9.22,2.78-13.57,4.19-3.52,1.14-6.98,2.43-11.08,3.87Z"/>
  <path class="cls-1" d="m173.85,226.67c-19.31.03-34.74-15.4-34.72-34.72.02-19.32,15.48-34.7,34.8-34.63,19.19.08,34.45,15.33,34.54,34.52.08,19.32-15.3,34.79-34.62,34.82Z"/>
</svg>