<?xml version="1.0" encoding="UTF-8"?>
<svg id="Calque_1" data-name="Calque 1" xmlns="http://www.w3.org/2000/svg" viewBox="0 0 254.8 254.53">
  <defs>
    <style>
      .cls-1 {
        fill: #f4f4f4;
      }
    </style>
  </defs>
  <path class="cls-1" d="m147.6,198.67c.82-.72,1.61-1.48,2.46-2.17,8.66-7.05,9.01-16.15.67-23.75-7.81-7.11-17.66-7.9-27.51-7.96-10.7-.07-10.7.13-9.1,10.43,4.28,27.4-20.05,51.82-47.55,47.79-6.13-.9-9.28-5.03-10.82-10.33-2.95-10.19-.27-19.63,7.46-26.3,9.35-8.06,19.92-14.71,29.97-21.95.76-.55,1.59-1.01,2.59-1.65-8.67-6.32-17.36-12.14-25.43-18.71-6.13-4.99-12-10.49-17.06-16.55-9.01-10.79-9.26-22.77-2.1-34.64,6.73-11.15,14.96-21.16,25.57-28.87,21.55-15.67,44.77-27.68,71.5-31.7,12.78-1.92,25.43-1.76,37.81,2.55,18.81,6.55,26.51,20.69,20.01,39.51-8.19,23.74-25.67,38.01-50.02,42.75-10.55,2.05-21.72,1.72-32.55,1.17-6.85-.35-12.85-4.33-16.64-10.54-.94-1.54-1.19-3.5-2.02-6.08,1.83.41,2.76.33,3.26.76,11.59,10.01,24.93,9.92,38.53,6.07,16.8-4.76,31.55-13.11,41.8-27.77,2.51-3.59,4.46-7.86,5.49-12.11,2.21-9.1-1.76-15.81-10.85-19.05-11.3-4.02-22.87-3.57-34.32-.79-26.43,6.41-50.09,18.34-69.67,37.34-5.07,4.92-9.36,11.42-11.9,18.01-4.19,10.85.61,20.2,8.71,27.6,6.72,6.15,14.75,10.99,20.86,17.64,6.93,7.54,14.3,8.77,23.77,6.83,11.21-2.29,21.79.48,31,7.4,7.04,5.29,10.76,12.42,10.77,21.36,0,7-4.01,11.37-9.67,14.46-1.29.7-3.2.27-4.82.36-.07-.36-.14-.73-.21-1.09Zm-45.41-27.77c-11.34,5.2-20.95,11.63-27.7,21.64-1.9,2.81-3.14,6.21-4.01,9.51-1.6,6.06,1.51,9.45,7.72,8.24,10.91-2.13,18.28-8.91,22.66-18.92,2.76-6.31,3.76-12.88,1.34-20.47Z"/>
</svg>