<?xml version="1.0" encoding="UTF-8"?>
<svg id="Calque_1" data-name="Calque 1" xmlns="http://www.w3.org/2000/svg" viewBox="0 0 500 500">
  <defs>
    <style>
      .cls-1 {
        fill: #f4f4f4;
      }
    </style>
  </defs>
  <path class="cls-1" d="m449.11,304.98c1.64,2.64.15,5.2-.62,7.52-8.59,25.95-20.96,49.94-38.68,70.83-12.25,14.44-25.79,27.65-41.9,37.92-.66-.25-.83.07-.77.66-17.49,12.14-36.51,21.1-56.83,27.4-1.81.56-3.57.43-5.33.8-.78-.08-1.66-.38-1.84.85-8.52,3.28-17.54,4.33-26.41,6.1-5.94,1.18-11.92-.55-17.73,1.12-.34,0-.67,0-1.01,0-8.52.45-17.05-.24-25.53-.5-9.85-.31-19.85-.99-29.16-5.55-1.81-.89-5.01-.56-7.63-1.06-16.66-3.16-31.62-10.62-46.28-18.55-20.53-11.1-38.39-25.76-54.1-43.02-10.93-12.01-20.26-25.19-28.14-39.34-7.83-14.07-13.45-29.06-18.12-44.5-7.45-24.61-8.31-49.83-6.7-75.04,1.35-21.11,7.17-41.43,15.35-61.12,8.77-21.1,21.11-39.83,35.73-57.13,14.5-17.15,32.15-30.58,51.33-42.16,20.19-12.19,42.05-19.87,65.02-24.55,14.75-3.01,29.72-4.24,44.77-3.67,45.31,1.72,86.42,15.36,122.38,43.47,8.47,6.62,8.49,6.66,13.26-3,7-14.2,13.93-28.44,21.28-43.44,5.67,16.93,10.98,33.12,16.53,49.23,9.45,27.43,16.8,55.42,22.76,83.79,1.41,6.71,2.06,13.58,3.19,20.35,1.3,7.76.28,16,1.67,23.26,2.52,13.2,2.46,26.25,2.2,39.35-.17,8.53-.48,17.13-3.11,25.71-1.28,4.17-1.2,9.74-1.68,14.68-.27,2.78-1.26,5.41-3.16,7.58-.99.4-.88,1.21-.74,2.02Zm-104.89-11.99c-1.61,5.1-6.44,7.66-9.64,11.38-12.74,14.85-27.54,27.6-44.52,37.55-9.2,5.4-18.27,10.77-28.61,14.31-5.39,1.85-10.94,4.76-16.52,6.63-19.1,6.37-38.43,12.07-57.61,18.21-2.88.92-6.26,1.1-9.04,4.13,1.84,0,3,0,4.15,0,28.81.02,57.62-.25,86.42.16,19.67.28,39.29.45,58.81-2.46,15.93-2.37,31.21-6.47,45.86-13.55,24.34-11.76,40.05-30.97,50.49-55.21,3.64-8.46,6.56-17.17,8.04-26.29,1.44-8.9,4.39-17.34,4.37-26.78-.01-10.37.49-20.83.62-31.27.08-6.26-2.62-12.67.69-18.81-.38-1.51-1.69-2.19-2.78-3.06-.09-12.63-3.12-24.88-5.39-37.18-2.45-13.26-6.18-26.3-9.52-39.39-3.05-11.94-6.57-23.74-10.67-35.32-2.05.43-2.26,1.92-2.86,3.03-9.8,18.01-23.31,32.9-39.07,45.75-18.01,14.69-38.34,25.3-60.18,33.1-21.97,7.85-45.01,8.63-67.9,9.9-11.71.65-23.46,1.24-34.86,3.55-27.72,5.62-51.21,18.88-68.78,41.53-13.56,17.49-19.8,37.74-21.62,59.51-.58,6.95.82,13.78,1.95,20.62,2.64,15.93,9.04,29.97,21.54,40.49,4.56,3.84,9.03,8.68,16.56,6.59,9.61-2.67,19.47-4.39,29.17-6.74,24.21-5.85,48.18-12.33,71.58-21.14,12.97-4.88,25.06-11.08,37.08-17.71,13.62-7.51,25.23-17.86,38-26.57,1.14-.19,2.03-.6,1.71-2.02,6.92-7.17,13.78-14.41,21.27-21.01,1.78-.2,2.9-1,2.71-2.99,1.98-2.83,3.57-5.96,6.32-8.2.66.14.89-.23.93-.8,1.61-.45.45-2.71,2.06-3.16.64.09.9-.26.98-.83,8.22-13.34,17.4-26.14,23.35-40.86-1.3,9.79-4.62,18.86-8.38,27.8-.51.15-.94.36-.73,1.02-3.45,8.9-8.33,17.08-13.06,25.31-4.08,7.1-8.38,14.11-14.17,20.03-.22.08-.45.16-.67.24.22.14.45.28.67.43-1.99,2.7-3.98,5.4-5.97,8.1-1.35.03-2.43.44-2.77,1.92Zm-178.19,97.45c1.14-9.22-6.76-14.9-15.06-15.4-8.09-.49-15.76,7.34-15.93,15.65-.14,7.12,8.39,16.07,15.44,16.2,8.47.16,15.58-7.36,15.55-16.45Z"/>
</svg>