<?xml version="1.0" encoding="UTF-8"?>
<svg id="Calque_1" data-name="Calque 1" xmlns="http://www.w3.org/2000/svg" viewBox="0 0 855.81 767.8">
  <defs>
    <style>
      .cls-1 {
        fill: #f4f4f4;
      }
    </style>
  </defs>
  <path class="cls-1" d="m0,398.89v-28.99c1.88-3.94,3.19-8.61,3.45-12.38.48-6.92,4.2-12.12,6.65-17.81,3.17-7.36,8.8-13.63,12.26-20.9,4.67-9.8,11.33-18.42,15.75-28.31,2.06-4.62,5.14-8.7,7.83-12.87,2.76-4.27,3.55-9.64,7.23-13.11,3.18-3,4.89-7.07,6.42-10.56,3.45-7.87,8.52-14.7,12.63-22.08,4.15-7.46,8.55-14.91,13.01-22.23,4.89-8.02,9.27-16.49,13.79-24.8,8.31-15.24,17.27-30.13,25.95-45.17,13.77-23.83,27.49-47.69,41.31-71.49,9.6-16.54,17.65-34.19,33.87-45.94,9.04-6.55,18.49-12.1,28.91-16.23,6.5-2.58,13.52-3.12,19.88-6h356.92c6.78,3.22,14.32,3.95,21.29,6.81,15.77,6.48,29.45,15.6,40.69,28.44,7.6,8.69,12.65,18.98,18.3,28.87,26.95,47.18,54.79,93.85,81.14,141.39,12.69,22.89,26.44,45.2,39.61,67.83,9.96,17.12,19.72,34.36,29.63,51.5,6.45,11.16,12.98,22.21,15.92,35.03,1.22,5.33.59,11.05,3.37,16.03v1c-.16,3.31-.3,6.63-.49,9.94-.86,14.59-3.19,28.91-10.32,41.87-7.42,13.48-15.46,26.61-23.15,39.95-31.79,55.13-63.54,110.28-95.32,165.42-11.61,20.15-23.04,40.42-34.95,60.39-9.49,15.91-16.97,33.09-31.38,45.87-9.73,8.63-20.48,15.06-32.1,20.5-7.13,3.34-14.93,4.33-22.24,6.96H247.95c-8.33-2.72-17.01-4.38-25-8.16-.31-.28-.62-.57-.94-.85-.36-.12-.72-.24-1.09-.36l-.91-.64c-.36-.12-.72-.24-1.09-.36-.3-.21-.61-.43-.91-.64-.36-.12-.73-.24-1.09-.36-.39-.21-.78-.43-1.17-.64-1.27-.75-2.54-1.51-3.81-2.26-.31-.24-.62-.49-.93-.73-13.42-7.75-24.4-17.88-32.17-31.53-13.77-24.21-27.89-48.22-41.82-72.33-20.37-35.25-40.7-70.53-61.06-105.79-16.75-29-33.6-57.95-50.24-87.01-6.66-11.64-13.9-22.99-19.42-35.25-3.15-7-3.97-14.71-6.32-21.97Zm568.86,156.22c3.35-2.6,7.03-4.87,9.99-7.85,11.99-12.08,24.7-23.47,34.8-37.38,9.86-13.56,18.94-27.62,25.85-42.81,4.9-10.79,9.03-22.02,12.2-33.55,5.18-18.83,8.17-37.97,9.06-57.43.37-8.09-.12-16.19-.74-24.31-.72-9.52-2.1-18.89-3.89-28.21-3.21-16.7-8.44-32.73-15.1-48.41-10.29-24.23-24.58-45.78-41.94-65.37-8.98-10.13-19.39-18.79-30.01-27.17-9.05-7.14-18.84-10.64-30.44-7.73-11.02,2.77-17.69,10.5-21.27,20.39-3.68,10.19-1.27,20.17,5.88,28.43,5.95,6.87,13.95,11.51,20.53,17.72,17.65,16.65,31.43,36.07,41.02,58.37,7.4,17.2,11.86,35.2,14,53.76,1.41,12.2.75,24.34-.79,36.56-1.94,15.42-5.59,30.32-11.35,44.63-11.01,27.34-28.13,50.37-51.12,68.78-37.35,29.92-79.78,43.22-127.71,38.38-16.82-1.7-32.98-5.69-48.44-12.34-48.29-20.78-81.04-56.16-98.58-105.67-6.96-19.64-9.26-39.89-8.84-60.65.24-12.06,1.92-23.84,4.56-35.52,4.13-18.23,11.68-35.11,21.49-50.9,10.12-16.29,22.6-30.58,37.79-42.49,6.96-5.46,14.27-10.77,17.02-20.1,3.68-12.52-.84-26.79-11.38-34.31-10.5-7.49-25.34-7.69-35.76-.02-20.67,15.22-38.26,33.4-53.06,54.47-14.77,21.02-24.88,44.1-32.73,68.34-3.97,12.25-6.2,24.89-7.92,37.6-1.79,13.2-.82,26.52-1.09,39.78-.26,12.76,1.84,25.28,4.59,37.57,4.73,21.15,11.49,41.62,22.28,60.69,7.13,12.61,14.49,24.9,23.56,36.27,12.65,15.87,26.75,30.31,42.88,42.4,24.38,18.27,51.51,31.31,81.11,39.18,22.49,5.98,45.17,8.7,68.49,7.78,17.57-.7,34.62-3.61,51.62-7.72,16.88-4.08,32.74-11.03,48.26-18.33,10.57-4.97,20.98-11.12,29.94-19.07.4-.26.81-.53,1.21-.79,1.48-.12,1.72-1.8,2.9-2.3l1.1-.7Zm-177.44-289.09c0,33.64.01,67.28-.01,100.91,0,6.68.53,13.03,3.48,19.37,5.34,11.48,24.67,21.91,36.59,18.25,19.46-5.98,29.19-16.97,29.13-37.71-.2-69.9,1.22-139.8-.74-209.69-.43-15.22-13.49-27.9-26.99-30.49-23.58-4.53-42.19,13.3-41.66,35.96.8,34.45.21,68.94.21,103.41Z"/>
</svg>