<?xml version="1.0" encoding="UTF-8"?>
<svg id="Calque_1" data-name="Calque 1" xmlns="http://www.w3.org/2000/svg" viewBox="0 0 159.59 159.59">
  <defs>
    <style>
      .cls-1 {
        fill: #f4f4f4;
      }
    </style>
  </defs>
  <path class="cls-1" d="m106.92,89.1c13.7,0,27.41-.02,41.11,0,5.98.01,6.57.53,6.58,6.42.03,17.18,0,34.36-.04,51.54-.01,4.01-.91,4.95-4.87,4.95-28.13.03-56.25.03-84.38-.01-4.85,0-5.18-.48-5.17-5.32.02-17.69.04-35.39.04-53.08,0-3.82.59-4.54,4.39-4.55,14.11-.03,28.23-.01,42.34-.01,0,.02,0,.03,0,.05Zm10.35,49.51c.21-4.69.53-8.62.51-12.55-.03-5.51.06-11.06-.59-16.51-.58-4.86-4.79-7.43-10.49-7.32-4.94.09-9.2,2.95-9.5,7.42-.48,7.11-.51,14.29-.13,21.41.22,4.04,3.3,6.86,7.17,7.4,4.36.61,8.87.14,13.02.14Zm-25.7-10.26c-.04-5.17-2.68-8.61-7.72-10.04-1.47-.42-3-.67-4.42-1.21-2.37-.9-3.52-2.74-3.28-5.28.24-2.53,2.06-3.69,4.28-4.16,2.38-.5,3.86.89,4.85,2.86.45.9.48,2.14,1.14,2.79.88.87,2.22,1.83,3.29,1.74.69-.05,1.77-1.92,1.75-2.95-.1-5.55-4.6-9.7-10.42-9.9-5.26-.18-9.77,3.56-10.53,8.74-.82,5.63,2.37,10.43,7.8,11.8,1.68.42,3.39.76,4.98,1.41,2.2.89,3.24,2.94,2.46,4.97-.6,1.58-2.16,3.16-3.7,3.91-1.87.91-3.82.04-4.92-1.93-.54-.97-.92-2.04-1.38-3.05-.64-1.39-1.29-3.29-3.19-2.24-1.03.57-2.04,2.33-1.98,3.5.3,5.75,5.37,9.77,11.43,9.41,5.44-.32,9.59-4.83,9.54-10.38Zm41.47,10.38v.06c2.25,0,4.49.03,6.74,0,1.89-.03,4.06-.14,4.02-2.64-.04-2.49-2.26-2.55-4.11-2.59-2.55-.05-5.12-.15-7.65.11-2.86.3-3.95-.44-3.87-3.58.21-7.34.01-14.7-.05-22.05-.01-1.22.12-2.57-.36-3.62-.39-.85-1.71-1.98-2.38-1.83-.96.21-2.41,1.44-2.42,2.25-.17,10.41-.11,20.82-.15,31.23,0,1.82.87,2.64,2.58,2.66,2.55.03,5.1,0,7.65,0Z"/>
  <path class="cls-1" d="m112.35,27.14c0,8.79.29,17.04-.23,25.25-.11,1.74-2.87,4.03-4.89,4.8-5.69,2.16-11.55,4.07-17.5,5.34-16.34,3.5-32.9,3.75-49.43,1.84-9.1-1.05-18.11-3.01-26.63-6.73-4.42-1.93-6.71-4.67-6.4-9.84.4-6.82.1-13.68.1-21.17,16.55,9.37,34.5,9.58,52.31,9.74,17.87.16,35.76-.52,52.68-9.23Z"/>
  <path class="cls-1" d="m112.39,60.97c0,7.18-.08,13.61.04,20.04.04,2.15-.67,2.85-2.78,2.84-13.91-.07-27.82-.05-41.73-.07-.41,0-.82,0-1.23,0-9.69.03-12.08,2.48-11.98,12.25,0,.99-.08,1.98-.15,3.53-5.11-.45-10.04-.45-14.78-1.41-8.48-1.71-16.93-3.67-25.21-6.15-6.43-1.92-7.19-3.63-7.2-10.36,0-6.71,0-13.43,0-20.84,16.82,9,34.72,9.56,52.59,9.77,17.94.21,35.74-.94,52.43-9.6Z"/>
  <path class="cls-1" d="m60.64,5.53c13.64-.21,27.17,1,40.26,5.03,3.33,1.03,6.57,2.8,9.43,4.82,2.89,2.05,2.86,4.72-.26,6.36-4.55,2.4-9.38,4.6-14.36,5.76-19.51,4.56-39.31,4.96-59.12,2.44-6.73-.86-13.34-2.9-19.91-4.74-2.39-.67-4.7-2.05-6.69-3.57-2.91-2.21-2.93-4.67.13-6.71,2.76-1.84,5.85-3.67,9.03-4.32,9.88-2,19.86-3.6,29.85-4.99,3.81-.53,7.75-.09,11.64-.09Z"/>
  <path class="cls-1" d="m7.79,95.26c.62.17,1.34.23,1.93.54,11.71,6.07,24.44,7.76,37.34,8.5,7.82.45,7.82.25,7.76,8.02-.04,5.32-.02,10.63,0,15.95,0,1.49-.18,2.59-2.16,2.46-12.16-.81-24.23-2.07-35.8-6.22-.29-.1-.56-.25-.85-.36-8.04-3.11-8.66-3.99-8.65-12.54,0-5.21.03-10.43.07-15.64,0-.18.17-.35.35-.7Z"/>
  <path class="cls-1" d="m112.3,128.77c-4.99-1.9-5.11,1.58-5.29,4.83-2.75-.86-4.4-2.25-4.51-4.55-.28-5.59-.45-11.19-.31-16.78.07-3,2.24-4.74,4.95-4.77,2.73-.03,4.97,1.75,5.12,4.62.21,3.96.05,7.94.05,11.91,0,1.4,0,2.79,0,4.75Z"/>
</svg>