<?xml version="1.0" encoding="UTF-8"?>
<svg id="Calque_2" data-name="Calque 2" xmlns="http://www.w3.org/2000/svg" viewBox="0 0 407.33 356.24">
  <defs>
    <style>
      .cls-1 {
        fill: #f4f4f4;
      }
    </style>
  </defs>
  <g id="Calque_1-2" data-name="Calque 1">
    <path class="cls-1" d="m407.33,337.87c-1.44,5.87-2.87,11.73-4.5,18.37-3.06-3.77-5.32-6.86-7.89-9.68-11.09-12.16-23.87-21.51-40.63-24.18-11.85-1.89-22.99.53-33.71,5.48-12.9,5.95-25.57,12.48-38.7,17.86-22.82,9.35-46.86,11.42-71.28,10.2-32.74-1.64-64.19-8.81-94.02-22.5-42.93-19.7-78.37-48.76-106.94-86.28-3.54-4.64-6.83-9.47-9.65-14.98,1.72,1.04,3.44,2.08,5.15,3.14,27.31,16.88,56.2,30.11,87.58,37.39,40.34,9.37,80.18,8.42,119.15-6.71,4.94-1.92,9.64-4.44,14.43-6.75,1.04-.5,1.97-1.25,3.16-2.02-5.38-3.83-10.66-7.32-15.64-11.18-27.49-21.24-51.45-46.19-74.87-71.67-34.49-37.53-67.32-76.49-99-116.42-.41-.52-.81-1.04-1.02-1.77,25.77,20.29,51.35,40.83,77.37,60.79,26.02,19.96,52.68,39.04,81.23,55.33-20.29-20.59-38.18-43.14-55.62-66.04-17.45-22.92-34.52-46.12-51.42-69.49,61.12,56.35,127.69,105.63,195.7,154.25,1.35-4.01,2.63-7.43,3.66-10.93,11.25-37.9,8.68-75.41-3.5-112.57-7.75-23.66-18.97-45.59-33.48-65.83-.28-.39-.48-.84-.33-1.69,3.99,2.76,8.02,5.45,11.95,8.3,30.35,22,57.76,47.03,79.25,78.01,23.86,34.41,37.75,72.17,37.14,114.5-.23,15.88-2.39,31.55-7.95,46.55-.83,2.24-.36,3.61,1.02,5.32,13.18,16.41,24.02,34.13,29.75,54.58,1.56,5.58,2.45,11.35,3.65,17.03v13.57Z"/>
  </g>
</svg>