<?xml version="1.0" encoding="UTF-8"?>
<svg id="Calque_1" data-name="Calque 1" xmlns="http://www.w3.org/2000/svg" viewBox="0 0 300 300">
  <defs>
    <style>
      .cls-1 {
        fill: #f4f4f4;
      }
    </style>
  </defs>
  <path class="cls-1" d="m162.5,300h-26.5c.45-.08.89-.2,1.34-.23,2.11-.13,4.21-.23,6.32-.33-.71-.22-1.42-.19-2.12-.22-5.73-.28-11.46-.37-17.14-1.44-9.47-1.78-18.74-4.24-27.72-7.7-26.06-10.05-47.76-26.04-64.91-48.08-14.11-18.13-23.81-38.37-28.41-60.98-1.51-7.44-2.59-14.92-2.4-22.54,0-.37-.06-.75-.09-1.12-.31.54-.34,1.07-.39,1.59C.32,160.55.16,162.15,0,163.75c0-9,0-18,0-27,.2,1.93.41,3.87.56,5.38,1.68-37.77,16.1-70.39,42.83-97.47C70.13,17.59,102.56,2.7,140.36.54c-1.56-.16-3.46-.35-5.36-.54,10,0,20,0,30,0-1.63.2-3.27.41-4.9.61.46.18.92.23,1.37.24,10.32.12,20.35,2.06,30.21,4.92,11.63,3.37,22.65,8.15,33.19,14.17,15.48,8.85,28.76,20.29,40.26,33.8,12,14.09,20.83,30.03,26.86,47.54,3.06,8.87,5.32,17.94,6.49,27.25.49,3.87.38,7.81.54,11.71.03.62.07,1.24.11,1.87.06-.01.12-.02.18-.03.23-2.35.46-4.71.69-7.06v28c-.19-1.4-.37-2.8-.56-4.2-.13,0-.25,0-.38,0,0,1.9.03,3.81,0,5.71-.12,6.78-1.44,13.39-2.98,19.96-5.02,21.44-14.62,40.68-28,58.11-5.01,6.53-10.77,12.39-16.75,18-9.31,8.73-19.8,15.87-31.02,21.9-13.95,7.51-28.77,12.54-44.41,15.2-6.09,1.04-12.18,1.82-18.37,1.38-.32-.02-.64.03-.96.05,0,.04,0,.07,0,.11,1.98.26,3.95.51,5.93.77Zm-9.23-181.05c-1.9-1.76-3.6-3.29-5.25-4.87-5.33-5.11-10.73-10.11-17.4-13.5-9.12-4.64-18.66-6.61-28.76-4.26-8.55,1.98-15.97,5.95-21.22,13.27-5.12,7.16-7.17,15.06-5.36,23.75,1.51,7.27,5.09,13.5,10.09,18.94,3.47,3.77,7.13,7.38,10.36,11.35,4.87,5.98,3.89,13.69-2.01,18.67-6.78,5.72-15.83,5.28-22.94.39-4.68-3.21-3.73-5.54-1.89-8.64.99-1.67,1.91-3.44,2.49-5.28,1.95-6.21-.66-14.37-8.38-15.94-5.41-1.1-10.34,1.15-12.15,6.36-.75,2.15-1.15,4.56-1.1,6.83.19,7.57,3.89,13.46,9.74,17.92,9.86,7.51,21.16,10.22,33.4,9.07,9.08-.85,16.89-4.53,23.26-11.12,7.69-7.97,10.54-20.09,5.51-30.72-2.25-4.75-5.36-8.91-8.74-12.88-3.48-4.09-7.2-7.98-10.62-12.12-3.25-3.94-3.91-8.52-2.09-13.27,2.54-6.61,9.33-10.18,16.75-9.03,6.51,1.01,12.48,3.4,17.58,7.55,5.52,4.49,10.82,9.26,16.18,13.94.25.22.35.81.27,1.16-2.41,9.94-5.03,19.83-7.22,29.82-1.85,8.4-3.17,16.92-4.79,25.38-2.13,11.11-4.48,22.18-7.75,33.03-2.34,7.75-5.17,15.31-9.74,22.07-3.96,5.84-8.83,10.72-15.42,13.64-2.37,1.05-4.84,1.52-7.42,1.36-1.54-.1-2.66-.93-3.2-2.4-.51-1.38.15-2.45,1.14-3.31.98-.84,2.02-1.6,3.08-2.33,1.62-1.11,2.85-2.54,3.1-4.49.22-1.75.37-3.6.07-5.32-1.32-7.52-8.88-11.28-15.31-9.97-7.62,1.55-12.84,7.54-12.92,15.18-.08,7.06,3.43,12.21,9.54,15.55,6.88,3.76,14.3,4.01,21.77,2.64,11.84-2.17,21.83-8.1,30.36-16.34,15.51-14.98,25.23-33.41,31.23-53.95,2.86-9.79,5.11-19.72,6.92-29.76,1.18-6.51,2.44-13,3.48-19.54.24-1.51.81-1.63,2.01-1.5,1.57.17,3.15.25,4.74.32,6.95.3,13.82-.11,20.49-2.31,6.32-2.08,12-5.14,16.23-10.47,2.97-3.75,4.39-7.91,3.38-12.69-1.5-7.1-7.87-10.12-14.07-6.71-5,2.75-6.37,7.63-3.53,12.53.48.83.94,1.67,1.34,2.53,1.26,2.67.87,4.26-1.52,6.05-2.54,1.91-5.46,3-8.52,3.72-5.91,1.4-11.87,1.51-17.87.73-1.21-.16-1.13-.82-.97-1.67,1.22-6.42,2.39-12.84,3.67-19.25,1.79-8.94,3.83-17.81,7.25-26.3,2.39-5.91,5.38-11.43,10.18-15.82,4.78-4.36,10.37-6.17,16.76-5.61.97.09,1.98.39,2.84.83,2.25,1.15,2.76,2.85,1.63,5.08-.68,1.33-1.43,2.63-2.15,3.95-1.51,2.76-1.66,5.68-.65,8.58,1.46,4.21,4.66,6.31,8.99,6.86,5.41.69,9.71-1.29,12.23-5.66,3.56-6.17,2.61-13.44-2.42-18.48-4.54-4.55-10.33-6.24-16.46-6.95-10.6-1.23-20.32,1.57-29.35,6.92-8.4,4.97-14.81,12.07-20.45,19.9-7.6,10.55-13.16,22.15-17.48,34.37-.24.69-.56,1.36-.92,2.22Z"/>
</svg>