<?xml version="1.0" encoding="UTF-8"?>
<svg id="Calque_2" data-name="Calque 2" xmlns="http://www.w3.org/2000/svg" viewBox="0 0 355.95 347.22">
  <defs>
    <style>
      .cls-1 {
        fill: #f4f4f4;
      }
    </style>
  </defs>
  <g id="Calque_1-2" data-name="Calque 1">
    <path class="cls-1" d="m210.35,256.53c1.93-.25,3.61-.46,5.29-.69,8.54-1.19,17.01-2.68,25.12-5.68,9.32-3.45,18.09-7.92,25.8-14.29,8.26-6.83,13.9-15.46,17.76-25.36,3.55-9.12,5.66-18.55,6.57-28.29.52-5.65.79-11.31.55-16.97-.69-16.58-6.37-31.19-17.57-43.55-.15-.16-.3-.33-.44-.5-.04-.04-.05-.1-.14-.27.39-1.16.83-2.4,1.24-3.66,2.73-8.35,3.15-16.88,1.86-25.51-.86-5.73-2.45-11.27-4.48-16.69-.4-1.07-.98-1.61-2.11-1.76-2.84-.38-5.65-.22-8.45.35-5.97,1.22-11.52,3.63-17.09,6.01-7.07,3.03-13.6,7.04-20.01,11.24-1.2.79-2.27,1.03-3.7.63-9.22-2.57-18.63-4.15-28.17-4.95-8.76-.74-17.53-.79-26.3-.18-10.5.73-20.83,2.43-30.99,5.18-1.19.32-2.08.17-3.08-.53-9.85-6.91-20.71-11.81-32.01-15.76-3.89-1.36-7.89-2.31-12.07-2.15-.33.01-.67.03-1,.04-1.79.01-2.8.72-3.44,2.59-2.44,7.13-4.22,14.38-4.62,21.92-.39,7.29.62,14.4,3.11,21.28.23.62.45,1.25.69,1.91-1.38,1.67-2.8,3.29-4.13,4.99-7.5,9.65-11.95,20.56-13.48,32.69-.98,7.76-.72,15.52-.05,23.28.75,8.67,2.47,17.13,5.41,25.33,2.68,7.47,6.06,14.55,11.06,20.78,5.48,6.82,12.3,11.96,19.93,16.14,10.8,5.92,22.38,9.38,34.51,11.13,2.58.37,5.17.68,7.76,1.03.48.07.96.19,1.59.33-.58.63-1.06,1.15-1.55,1.67-4.88,5.25-7.56,11.56-8.94,18.49-.17.87-.33,1.75-.45,2.63-.1.73-.43,1.17-1.13,1.47-4.31,1.86-8.78,3.15-13.45,3.64-2.81.3-5.65.4-8.48.5-4.67.17-9-1.07-13.09-3.26-6.57-3.51-11.3-8.84-15.13-15.12-1.47-2.41-3.05-4.79-4.88-6.92-4.39-5.12-9.88-8.78-16.19-11.08-3.5-1.28-7.23-1.74-10.99-1.07-.81.14-1.64.35-2.38.7-1.58.74-1.87,1.67-1.08,3.24,1.47,2.93,3.78,5.12,6.59,6.65,3.79,2.07,6.82,4.92,9.5,8.23,4.38,5.41,7.73,11.41,10.1,17.91,3.91,10.69,11.76,17.02,22.34,20.15,3.85,1.14,7.94,1.57,11.96,2.03,5.64.64,11.31.7,16.97.08,2.53-.28,5.05-.77,7.57-1.16.32-.05.65-.06,1.09-.11.03.55.08,1.03.08,1.52.07,10.39.14,20.78.2,31.16,0,1.45-.15,2.88-.78,4.22-1.38,2.97-3.65,4.7-6.93,4.99-1.95.17-3.87-.03-5.75-.67-22.69-7.71-43.11-19.34-60.91-35.41-17.76-16.04-31.93-34.84-42.42-56.36-7.25-14.87-12.11-30.5-14.78-46.83C.24,194.89-.39,181.82.22,168.7c1.07-22.83,6.28-44.67,15.99-65.41,9.67-20.65,22.66-38.92,39.21-54.62,11.75-11.15,24.85-20.44,39.13-28.09,11.5-6.16,23.53-10.97,36.11-14.39,8.91-2.42,17.95-4.09,27.13-5.1C167.64,0,177.52-.25,187.4.24c21.79,1.07,42.72,5.87,62.66,14.8,17.89,8.01,34.08,18.61,48.54,31.84,12,10.98,22.2,23.46,30.77,37.27,6.97,11.22,12.69,23.04,17,35.52,3.73,10.78,6.32,21.84,7.88,33.14,1.58,11.43,2,22.9,1.46,34.41-1.08,23.18-6.39,45.32-16.37,66.32-7.23,15.2-16.49,29.04-27.49,41.75-13.4,15.47-29,28.25-46.91,38.19-9.58,5.32-19.59,9.68-29.99,13.14-1.82.61-3.71.73-5.6.49-3.95-.51-6.65-3.54-7.1-7.86-.07-.66-.06-1.33-.06-2,0-15.83-.01-31.67,0-47.5,0-6.09-.56-12.09-2.37-17.93-1.71-5.5-4.45-10.4-8.66-14.39-.23-.22-.43-.47-.83-.9Z"/>
  </g>
</svg>