<?xml version="1.0" encoding="UTF-8"?>
<svg id="Calque_1" data-name="Calque 1" xmlns="http://www.w3.org/2000/svg" viewBox="0 0 384 384">
  <defs>
    <style>
      .cls-1 {
        fill: #f4f4f4;
      }
    </style>
  </defs>
  <path class="cls-1" d="m210.59,345.48c-20.25,0-39.22-.08-58.19.05-5.17.03-5.33-3-5.32-6.87.14-58.73.22-117.47.29-176.2,0-5.25-.06-10.5-.22-15.74-.13-4.17.98-6.42,5.93-6.33,15.99.3,31.99.39,47.98.06,5.89-.12,7.43,2.37,7.27,7.55-.19,6.1-.04,12.21-.04,19.96,3.06-3.37,5.07-5.42,6.92-7.62,13.69-16.33,31.4-23.96,52.47-24.81,36.74-1.48,60.92,13.71,70.72,45.28,2.43,7.82,4.25,15.99,5.04,24.12,1.27,13.16,1.89,26.41,2.01,39.64.28,30.99,0,61.98.18,92.97.03,5.63-1.3,7.83-7.58,7.66-18.21-.49-36.45-.17-55.62-.17-.14-3.02-.36-5.64-.37-8.26-.12-33.99,0-67.98-.48-101.97-.11-7.63-1.29-15.53-3.61-22.78-4.62-14.43-13.14-20.34-26.95-20.51-18.44-.22-30.64,5.77-34.87,19.95-3.44,11.55-5.34,23.93-5.61,35.99-.68,29.97-.03,59.98.08,89.97,0,2.44,0,4.88,0,8.07Z"/>
  <path class="cls-1" d="m107.4,243.86c0,31.48-.16,62.95.14,94.43.06,6.13-1.83,7.58-7.71,7.41-16.22-.47-32.47-.45-48.7-.22-5.67.08-7.65-1.27-7.63-7.52.19-63.45.07-126.91-.19-190.36-.02-5.32,1.7-7.11,6.8-7.05,16.74.2,33.48.38,50.21.09,5.67-.1,7.29,1.82,7.25,7.29-.19,31.97-.09,63.95-.09,95.93-.02,0-.05,0-.07,0Z"/>
  <path class="cls-1" d="m75.39,38.59c20.2.01,36.69,16.58,36.67,36.83-.02,19.35-17.13,36.53-36.43,36.57-19.17.04-36.43-17.15-36.6-36.45-.17-20.44,16.08-36.97,36.36-36.96Z"/>
</svg>